<?xml version="1.0" encoding="utf-8"?>
<!DOCTYPE svg PUBLIC "-//W3C//DTD SVG 1.0//EN" "http://www.w3.org/TR/2001/REC-SVG-20010904/DTD/svg10.dtd">
<svg version="1.0" xmlns="http://www.w3.org/2000/svg" width="1500px" height="1500px" viewBox="0 0 1500 1500" preserveAspectRatio="xMidYMid meet">
 <g fill="#2c2e37">
  <path d="M0 750 l0 -750 750 0 750 0 0 750 0 750 -750 0 -750 0 0 -750z m794 607.4 c43.9 -4.1 86.3 -13.7 136.5 -30.8 118.9 -40.4 217.6 -111.7 293.1 -211.9 60.1 -79.6 98 -170.6 110.8 -265.9 3.8 -28.4 4.9 -48.9 4.3 -80.3 -1 -46.9 -5.3 -77.4 -19.6 -136.5 -1.4 -5.8 -1.9 -6.9 -2.4 -5 -4 18.3 -10.5 43 -13.8 53 -24.7 75 -72.1 141.4 -139.6 195.7 -6.7 5.4 -12 9.9 -11.9 10.1 0.2 0.1 24.8 -4.9 54.8 -11.3 29.9 -6.3 55.9 -11.5 57.6 -11.5 l3.2 0 0 6.8 c0 9.8 -2.7 31.5 -6.1 49.2 -21.4 110.8 -77.5 202.4 -165.9 271 -94 72.9 -198 113.6 -309.4 121.1 -22.5 1.5 -76.3 0.6 -97.1 -1.6 -96 -10.1 -174.4 -37.3 -244.5 -84.6 -70.1 -47.3 -129.6 -115.8 -171.6 -197.4 -44 -85.6 -63 -169.1 -61.1 -269 2.6 -135.6 41 -243.8 120.1 -338 13.8 -16.4 44.4 -47 60.1 -60.1 53.3 -44.2 112.4 -76 187.5 -100.9 14.4 -4.8 19.1 -5.9 26.1 -6.3 10.4 -0.5 14.1 0.5 23.1 6.4 19.2 12.7 37.1 14.7 57.1 6.2 24.4 -10.3 41.7 -34.7 41.8 -59.3 0.2 -24.2 -14.4 -47.1 -37.1 -58.5 -15 -7.5 -27.9 -9.1 -42.5 -5.1 -12.4 3.4 -20.9 8.4 -30 17.6 -9 8.9 -13 15.6 -17 28.3 -2.8 8.7 -6.5 14.1 -11.8 16.9 -1.7 0.8 -11.4 4.3 -21.6 7.8 -134 45.3 -236.1 119.6 -304.6 221.5 -23.2 34.6 -44 75.7 -59.9 118.2 -18.8 50.5 -32.8 110.4 -39.2 167.6 -2.2 19.1 -2.9 64.8 -1.5 85.7 2.9 41.3 10.4 83.8 22.1 124.8 35 123.1 99.2 221.3 194.1 297.3 68 54.5 146.1 91.6 240.4 114.4 61.5 14.9 119.9 19.7 175.5 14.4z m-196.5 -255.5 c5 -0.6 9.2 -1.4 9.5 -1.8 0.3 -0.3 4.8 -1.7 10 -3 10.5 -2.6 29.5 -9.4 31 -11.1 0.3 -0.3 5.8 -3.2 12.2 -6.4 6.5 -3.2 13.3 -7 15.2 -8.5 1.8 -1.5 6.3 -4.4 9.9 -6.5 3.6 -2.1 7.8 -4.9 9.4 -6.2 5.2 -4.2 16.4 -12.4 17.1 -12.4 0.4 0 1.9 -1.3 3.3 -2.8 1.5 -1.5 5.3 -4.8 8.5 -7.2 3.3 -2.4 7.5 -6 9.5 -7.9 8.6 -8.7 13.6 -12.1 17.7 -12.1 2.8 0 4.5 0.7 6.2 2.5 1.3 1.4 2.8 2.5 3.5 2.5 0.6 0 3.5 2.5 6.5 5.7 3 3.1 6.8 6.4 8.4 7.4 1.7 1 5 3.6 7.5 5.8 6.2 5.4 20.8 16.1 22.1 16.1 0.5 0 1 0.4 1 0.9 0 0.8 10.4 8.1 11.5 8.1 0.8 0 8.9 5.4 10 6.7 0.6 0.6 6.9 4 14 7.4 7.2 3.5 13.3 6.7 13.6 7.2 1.4 1.9 27.6 10.5 37.4 12.2 2.2 0.4 4.3 1.2 4.7 1.8 0.9 1.5 30.5 1.7 31.6 0.2 0.4 -0.6 3.9 -2 7.7 -3.2 10.5 -3.4 20.1 -9.5 26.5 -17.1 3 -3.5 6.3 -7.4 7.3 -8.6 2.4 -2.7 9 -16.5 11.4 -23.6 1 -3 2.1 -5.7 2.5 -6 1.5 -1.2 5 -18.5 6.8 -34 1.3 -10.9 1.3 -42.3 0 -56.5 -1.4 -15.2 -6.1 -47.9 -6.9 -48.5 -0.9 -0.6 -4.1 -16.4 -4.1 -20.3 0 -1.5 0.6 -2.9 1.3 -3.1 9.5 -2.8 25.3 -8.1 25.7 -8.7 0.3 -0.4 3.2 -1.6 6.5 -2.7 5.5 -1.9 14 -5.2 25.5 -9.8 2.5 -1 4.7 -2.1 5 -2.5 0.3 -0.4 6.4 -3.5 13.5 -6.9 7.2 -3.4 13.2 -6.5 13.5 -6.9 0.8 -1.1 13.9 -9.1 14.9 -9.1 0.5 0 2.4 -1.4 4.2 -3.2 1.9 -1.7 5.8 -4.6 8.7 -6.5 4.8 -3.1 22.1 -19.7 30.2 -29 1.9 -2.2 5.5 -7.8 7.9 -12.4 2.4 -4.6 4.7 -8.6 5.1 -8.9 1.7 -1.3 5.2 -16.8 5.3 -23.3 0.2 -7.7 -2.6 -21.9 -4.7 -23.9 -0.6 -0.7 -1.8 -2.9 -2.6 -4.8 -1.7 -4.3 -11 -19.2 -12.6 -20.2 -0.6 -0.4 -3.7 -3.9 -6.9 -7.8 -3.2 -3.9 -7 -7.7 -8.4 -8.5 -1.4 -0.7 -4.7 -3.4 -7.4 -5.9 -2.6 -2.5 -4.9 -4.6 -5.2 -4.6 -0.2 0 -3.5 -2.3 -7.3 -5 -3.8 -2.7 -7.3 -5 -7.8 -5 -0.5 0 -2.3 -1.2 -4.1 -2.8 -1.8 -1.5 -8.1 -5.2 -14 -8.2 -5.9 -3 -11.3 -5.9 -11.9 -6.5 -1.8 -1.7 -26.9 -12.5 -29 -12.5 -0.7 0 -1.4 -0.5 -1.6 -1 -0.3 -1 -18 -7.5 -32.8 -12.2 -4.1 -1.2 -7.6 -2.6 -7.8 -3 -0.2 -0.5 -1.2 -0.8 -2.3 -0.8 -1.4 0 -1.9 -0.7 -1.9 -2.7 0 -3.7 4.1 -24.7 4.9 -25.3 0.9 -0.7 4.8 -29.1 6.2 -45.9 1.4 -16.6 0.6 -52.2 -1.5 -64.6 -1.7 -10.7 -3.8 -19.8 -4.6 -20.5 -0.3 -0.3 -1.6 -3.9 -2.9 -8 -2.3 -7.3 -9.4 -22.5 -10.9 -23.2 -1.1 -0.5 -7.2 -8.6 -7.2 -9.6 0 -1.3 -4.9 -5.5 -10.6 -9 -2.8 -1.8 -6.1 -4.1 -7.3 -5.1 -1.1 -1 -5.8 -3.1 -10.4 -4.6 -11 -3.6 -26.6 -4.5 -38.7 -2.1 -9.7 1.9 -23.3 5.7 -24 6.6 -0.3 0.4 -3.2 1.6 -6.5 2.8 -7 2.4 -25.8 11 -26.5 12.2 -0.3 0.4 -2.5 1.8 -5 3.1 -7.3 3.7 -18.4 10.3 -19.5 11.5 -0.5 0.7 -4.9 3.7 -9.6 6.8 -4.8 3 -8.9 5.9 -9 6.4 -0.2 0.5 -3.1 2.8 -6.4 5 -3.3 2.3 -8 6 -10.5 8.2 -2.5 2.2 -6.7 5.8 -9.5 8.1 -2.7 2.2 -7.6 6.5 -10.7 9.5 -7.8 7.4 -10.1 7.4 -18.8 -0.7 -3.6 -3.3 -8.8 -7.8 -11.5 -9.9 -2.8 -2.1 -7.3 -5.9 -10 -8.4 -2.7 -2.5 -5.4 -4.6 -6 -4.6 -0.5 0 -3 -1.9 -5.5 -4.1 -2.5 -2.3 -8.7 -6.9 -13.7 -10.1 -5.1 -3.3 -9.3 -6.4 -9.3 -6.9 0 -0.5 -0.5 -0.9 -1.1 -0.9 -0.6 0 -2.3 -0.9 -3.8 -1.9 -1.4 -1 -6.2 -3.8 -10.6 -6.1 -4.4 -2.3 -8.2 -4.6 -8.5 -5 -1.1 -1.7 -30.6 -14 -33.6 -14 -0.8 0 -1.4 -0.4 -1.4 -0.9 0 -0.9 -11.6 -4.3 -21.5 -6.2 -7.5 -1.5 -24.4 -1.5 -31 0 -9.2 2.2 -15.5 4.2 -16.7 5.5 -0.7 0.7 -4.5 3.3 -8.4 5.8 -3.8 2.5 -8.1 6 -9.5 7.7 -1.3 1.8 -3.9 4.9 -5.8 6.9 -3.8 4.2 -9.9 16 -12.6 24.2 -1 3 -2.2 5.7 -2.6 6 -1.3 0.9 -4.7 15.2 -6.6 28 -2.4 15.8 -2.4 54.8 0.1 75 2.1 18.3 5.6 39.3 6.5 40 0.9 0.6 3.1 12.7 3.1 16.9 0 3.9 -1.5 5.6 -6.1 6.6 -6.6 1.4 -37.4 12.4 -37.7 13.5 -0.2 0.5 -0.9 1 -1.5 1 -1.9 0 -30.1 12.3 -31.6 13.8 -0.7 0.7 -5.6 3.4 -10.7 5.9 -5.1 2.6 -10.7 5.9 -12.4 7.5 -1.7 1.5 -3.5 2.8 -3.9 2.8 -1.5 0 -16.6 10.7 -21.1 14.9 -2.5 2.4 -6.2 5.4 -8.2 6.8 -2 1.3 -4.9 4.3 -6.4 6.4 -1.5 2.2 -3.9 5 -5.4 6.2 -3.4 2.9 -12.5 16.7 -14 21.2 -0.6 1.9 -1.5 3.5 -1.9 3.5 -3.3 0 -7.4 21.8 -6 32 0.9 6.6 4.6 19.1 5.9 20 0.4 0.3 2.4 3.8 4.6 7.9 2.1 4 5.6 9.1 7.7 11.2 2 2.2 3.7 4.3 3.7 4.7 0 1.9 25.5 25.2 27.6 25.2 0.5 0 2.8 1.7 5.1 3.8 2.3 2.1 5.5 4.5 7 5.2 5.3 2.8 12.8 7.3 13.8 8.4 1.2 1.4 25.9 13.6 27.3 13.6 0.6 0 1.2 0.4 1.4 0.8 0.6 1.4 29.4 13.2 32.3 13.2 0.8 0 2 0.6 2.7 1.3 1 1.1 14.1 5.6 27.1 9.3 1.1 0.3 1.7 1.5 1.7 3.2 0 4 -3.2 20.6 -4 21.2 -1 0.6 -5.6 33 -7 48.5 -1.9 23 -1.1 52.3 2.1 69.5 1.9 10.7 4.1 19 5 19 0.5 0 0.9 0.8 0.9 1.8 0 4.7 9.5 25.1 14.4 31 5.7 6.8 12.2 13.8 13.7 14.7 9.9 6 12.7 7.4 17.7 9.1 3.1 1 5.9 2.2 6.2 2.6 0.5 0.7 11 2.4 16 2.7 1.4 0 6.6 -0.4 11.5 -1z"/>
  <path d="M646.9 240.7 c-10.1 -4.2 -15.7 -9.7 -20.1 -19.3 -1.8 -4 -2.2 -6.8 -2.2 -15.4 0 -9.7 0.2 -11 3.1 -17.2 3.7 -7.9 9.9 -14.4 16.8 -17.9 4.5 -2.2 6.2 -2.4 17.5 -2.4 15.1 0.1 21.4 2.1 28.4 9.1 6.9 6.8 8.9 13.2 9 27.9 0.1 11.7 0 12.3 -3.2 18.7 -3.7 7.6 -8.3 12 -16.2 15.7 -4.6 2.1 -7.2 2.6 -16.5 2.9 -9.7 0.2 -11.6 0 -16.6 -2.1z"/>
  <path d="M572.1 1070.3 c-6.7 -1.8 -8.9 -3.5 -16.8 -12.8 -2.8 -3.3 -5.2 -7.7 -7.2 -13.5 -3.3 -9.2 -7.1 -26.7 -7.1 -32.3 0 -2 -0.5 -3.7 -1.2 -3.9 -1.5 -0.5 -1.6 -54.7 -0.1 -55.6 0.6 -0.4 1.3 -4.7 1.7 -9.5 1.6 -20.3 7.3 -51.6 9.4 -52.5 1.6 -0.6 45.3 7.8 46.2 8.8 0.6 0.8 24.4 4.3 46.8 7 14.5 1.7 16.5 2.2 18.2 4.2 1.1 1.3 1.9 2.7 2 3.1 0 0.8 8.5 12.5 11.3 15.7 4.8 5.5 9.7 11.9 9.7 12.8 0 0.6 1.2 2 2.6 3.1 1.5 1.2 4.6 4.7 7.1 7.9 4.2 5.5 9.2 11.2 19.7 22.5 14.8 15.9 15.4 17.9 7.8 24.8 -12.5 11.4 -18.3 16.4 -19.5 16.8 -0.6 0.2 -2.6 1.8 -4.3 3.6 -1.8 1.7 -6.3 5.3 -10.2 7.8 -3.8 2.5 -7.2 5 -7.4 5.5 -0.3 0.9 -9.6 6.8 -18.8 12.1 -2.5 1.4 -5.1 3.1 -5.9 3.9 -1.7 1.7 -23.9 12.2 -25.7 12.2 -0.8 0 -1.4 0.4 -1.4 0.9 0 1 -8 3.8 -18.5 6.6 -9.2 2.4 -30.5 2.9 -38.4 0.8z"/>
  <path d="M896 1069.9 c-8 -1.4 -22.1 -5.8 -23.7 -7.5 -0.8 -0.8 -2.1 -1.4 -2.8 -1.4 -2.1 0 -24.5 -10.9 -24.5 -12 0 -0.5 -1 -1.2 -2.2 -1.6 -1.2 -0.3 -5.2 -2.6 -9 -5 -3.8 -2.4 -7.2 -4.4 -7.7 -4.4 -0.5 0 -2.2 -1.2 -3.8 -2.8 -3.3 -3.2 -9.9 -8.2 -10.8 -8.2 -1.1 0 -8.8 -6.2 -10.3 -8.2 -0.7 -1 -2.6 -2.5 -4.1 -3.2 -1.5 -0.8 -5.3 -4 -8.4 -7 -3.1 -3.1 -6 -5.6 -6.5 -5.6 -0.4 0 -2.5 -1.7 -4.5 -3.8 -2.9 -3 -3.7 -4.6 -3.7 -7.5 0 -3.1 0.9 -4.5 6.4 -10.2 3.6 -3.6 8.5 -9.1 11 -12.3 2.5 -3.2 5.9 -6.8 7.6 -8 1.6 -1.3 3 -2.8 3 -3.5 0 -0.7 2.6 -4 5.8 -7.4 3.1 -3.5 8.2 -9.7 11.2 -13.8 3 -4.2 6.8 -9 8.3 -10.8 1.6 -1.8 4.9 -6.2 7.4 -10 2.4 -3.7 5.2 -7.1 6.1 -7.6 0.9 -0.5 5.1 -1.2 9.2 -1.5 14.5 -1.4 50.5 -6.8 50.8 -7.7 0.2 -0.5 1.3 -0.9 2.5 -0.9 1.2 0 11 -1.8 21.7 -4 22.1 -4.5 25.6 -4.8 26.4 -2.2 0.4 1.5 3.4 17.8 5.1 27.5 1.2 7.4 3.5 28.3 3.5 32.5 0 2.3 0.5 4.2 1 4.2 0.6 0 1 8.7 1 24 0 13.2 -0.4 24 -0.9 24 -0.4 0 -1.1 3.7 -1.5 8.2 -1.4 16.7 -7.9 38.4 -13.1 43.5 -1.4 1.4 -3.4 4.1 -4.6 5.9 -1.3 2.1 -4.1 4.3 -7.7 6.1 -5.3 2.5 -6.7 2.8 -19.2 3 -7.4 0.1 -16 -0.3 -19 -0.8z"/>
  <path d="M744.2 966.7 c-1.2 -1.3 -2.2 -2.6 -2.2 -3 0 -0.3 -2.8 -3.4 -6.2 -6.9 -8.8 -8.9 -17.5 -18.8 -19.8 -22.5 -1 -1.7 -2.5 -3.5 -3.3 -4 -0.7 -0.4 -3.2 -3.2 -5.5 -6.1 -3.2 -4.1 -4.2 -6.3 -4.2 -9 l0 -3.7 47.5 0 47.5 0 0 2.8 c0 3.2 -3.2 8.6 -8.6 14.4 -2.2 2.3 -5.1 5.8 -6.6 7.8 -3.5 4.7 -13.7 16.3 -21.5 24.4 -3.5 3.6 -6.3 6.8 -6.3 7.3 0 0.4 -1.9 0.8 -4.3 0.8 -3.3 0 -4.9 -0.6 -6.5 -2.3z"/>
  <path d="M691.5 880.8 c-16.3 -0.9 -19.5 -1.6 -19.5 -4.2 0 -0.6 -1.3 -2.6 -2.9 -4.3 -1.6 -1.8 -5.1 -6.9 -7.8 -11.4 -2.6 -4.5 -5.8 -9.1 -7 -10.3 -1.3 -1.1 -2.3 -2.6 -2.3 -3.1 0 -0.6 -1.1 -2.6 -2.4 -4.5 -1.3 -1.9 -3.6 -6 -5.3 -9 -1.6 -3 -3.7 -6.5 -4.8 -7.7 -1 -1.2 -4.3 -6.8 -7.2 -12.5 -3 -5.6 -5.8 -10.5 -6.3 -10.8 -1 -0.6 -14 -26.5 -14 -28 0 -0.5 -0.4 -1 -0.9 -1 -0.4 0 -3 -4.7 -5.6 -10.4 -5.9 -13 -5.9 -16.5 0.5 -30.6 2.4 -5.2 4.6 -9.7 5 -10 0.4 -0.3 3.7 -6.6 7.4 -14 3.6 -7.4 7 -13.7 7.5 -14 0.4 -0.3 3.2 -5.1 6.1 -10.8 3 -5.6 6.1 -11 7 -12 0.9 -0.9 1.9 -2.5 2.3 -3.4 0.3 -1 2.2 -4.2 4 -7.1 1.9 -3 3.8 -6.3 4.1 -7.4 0.4 -1.2 1.8 -3.3 3.1 -4.7 1.4 -1.5 3.5 -4.6 4.8 -6.9 4.4 -7.8 10.7 -17.2 13.9 -20.9 l3.3 -3.6 20 -1.2 c25.6 -1.5 85.2 -1.5 111 0 21.8 1.2 20 0.7 25.5 7.6 2.5 3.2 9 13.2 11.7 18.2 1.4 2.6 3.6 5.8 4.9 7.1 1.3 1.2 2.6 3.2 3 4.4 0.4 1.1 2.6 5.1 5 8.9 2.4 3.8 4.4 7.2 4.4 7.7 0 0.5 0.4 1.1 0.8 1.3 1 0.4 4 5.4 9.2 15.3 2.2 4.4 4.8 8.3 5.6 8.8 0.8 0.4 1.4 1.2 1.4 1.8 0 1.5 11.8 25.7 12.8 26.1 1.3 0.5 10.2 21.7 10.2 24.3 0 1.2 -1.1 4.7 -2.3 7.6 -1.3 3 -3.2 7.4 -4.3 9.8 -1 2.4 -2.3 4.9 -2.9 5.5 -0.6 0.6 -4.1 7.4 -7.9 15.1 -3.8 7.7 -7.3 14.3 -7.8 14.6 -0.4 0.3 -3.6 5.9 -7 12.5 -3.3 6.5 -6.7 12.3 -7.4 12.9 -0.7 0.5 -2.3 3 -3.5 5.5 -1.3 2.5 -3.8 6.8 -5.6 9.7 -1.8 2.9 -3.3 5.6 -3.3 6.2 0 0.5 -0.4 1.1 -0.8 1.3 -1 0.3 -8.1 10.9 -10.2 15.1 -0.7 1.5 -2.7 4.2 -4.3 6 -1.6 1.7 -3.5 4.4 -4.3 5.9 -0.8 1.5 -2.4 3 -3.7 3.2 -11.3 2.4 -98.2 3.3 -133.2 1.4z m71.8 -62.4 c7.6 -1.6 14.8 -4.1 15.7 -5.3 0.3 -0.4 2.5 -1.7 5 -3 9 -4.6 22.8 -18.1 25.8 -25.1 0.6 -1.6 1.6 -3 2.1 -3 1.3 0 5.2 -9.6 7.2 -18 2.3 -9.1 2.4 -19.5 0.4 -28.9 -1.4 -6.8 -5.6 -18 -7.5 -20.5 -3.1 -3.7 -7.7 -10.3 -8.2 -11.8 -0.4 -0.9 -3.1 -3.5 -6 -5.8 -2.9 -2.3 -6.9 -5.6 -8.9 -7.2 -8 -6.8 -25.1 -12 -39.4 -11.9 -13 0 -31.9 5.5 -37.3 10.9 -1 1 -3.6 3.1 -5.7 4.7 -5.2 3.8 -11.5 9.7 -11.5 10.8 0 1 -4.9 7.7 -6.7 9.2 -1.9 1.5 -6.2 13 -7.8 20.8 -2.1 9.7 -1.9 21.4 0.6 30.9 1.8 7.2 6.1 17.4 7.8 18.8 0.3 0.3 1.8 2.3 3.2 4.5 5.6 8.5 19 20.2 25.9 22.7 1.7 0.5 3 1.3 3 1.8 0 1.2 9.3 4.2 19.5 6.4 4.7 0.9 16.2 0.5 22.8 -1z"/>
  <path d="M610 870.9 c-18.8 -3.1 -44.5 -8.1 -45 -8.9 -0.3 -0.4 -1.7 -1 -3.2 -1.4 -3.5 -0.8 -3.6 -3.5 -0.8 -13.2 1.1 -3.8 3 -10.3 4.2 -14.4 1.2 -4.1 2.5 -7.7 2.9 -8 0.4 -0.3 2.5 -6.1 4.8 -13 7.3 -21.9 6.8 -21 10.5 -21 4.1 0 5.2 1.3 12.5 16 3.4 6.7 6.7 12.8 7.5 13.5 0.8 0.8 2.4 3.6 3.7 6.2 1.3 2.6 3.8 7.1 5.6 10 1.8 2.9 3.3 5.6 3.3 6.2 0 0.5 0.4 1.1 0.8 1.3 1 0.3 8.2 11.5 8.2 12.6 0 0.4 1.4 2.7 3 5.2 1.8 2.7 3 5.8 3 7.8 0 3.2 0 3.2 -4.7 3.1 -2.7 -0.1 -10 -1 -16.3 -2z"/>
  <path d="M868 870 c0 -1.7 0.9 -4 2 -5.2 1.1 -1.2 2.8 -3.7 3.7 -5.7 1 -2 3.5 -6.4 5.6 -9.7 2 -3.4 3.7 -6.6 3.7 -7.2 0 -0.5 0.6 -1.2 1.3 -1.5 0.7 -0.2 3.6 -5 6.5 -10.6 2.9 -5.5 5.9 -10.7 6.6 -11.4 0.8 -0.7 4.2 -7.2 7.6 -14.3 3.5 -7.1 6.8 -13.2 7.4 -13.6 0.6 -0.4 2.5 -0.8 4.2 -0.8 3.6 0 3.2 -0.9 11 22.5 2.6 7.7 5 14.2 5.4 14.5 0.4 0.3 0.9 1.4 1.2 2.5 0.3 1.1 2 6.8 3.7 12.6 1.7 5.8 3.1 12.3 3.1 14.2 0 3.2 -0.4 3.8 -2.7 4.3 -1.6 0.4 -3 1 -3.3 1.4 -1.1 1.5 -55.2 11 -62.7 11 -4.1 0 -4.3 -0.1 -4.3 -3z"/>
  <path d="M518.5 849.8 c-1.6 -0.6 -3.2 -1.4 -3.5 -1.7 -0.3 -0.4 -5 -2.1 -10.5 -3.9 -14.3 -4.8 -26.9 -9.5 -27.6 -10.4 -0.3 -0.5 -3.2 -1.9 -6.5 -3.2 -10.2 -4.1 -23.4 -10.5 -23.4 -11.4 0 -0.5 -1.9 -1.7 -4.2 -2.8 -2.4 -1 -7.3 -3.8 -11.1 -6.1 -3.7 -2.4 -7.2 -4.3 -7.7 -4.3 -0.6 0 -1 -0.4 -1 -0.8 0 -0.9 -11.5 -10.2 -12.6 -10.2 -0.3 0 -4.3 -3.9 -9 -8.7 -13.1 -13.5 -18.4 -24.4 -18.4 -38.4 0 -10.4 4.3 -21.8 10.9 -28.9 2 -2.2 4.9 -5.5 6.4 -7.5 1.5 -1.9 5.4 -5.4 8.5 -7.7 3.1 -2.3 7.1 -5.6 8.9 -7.3 1.8 -1.7 4.5 -3.7 6 -4.5 3.5 -1.8 11.6 -7.1 12.3 -8.1 0.3 -0.4 6.1 -3.6 13 -7 6.9 -3.4 12.7 -6.6 13 -7 0.7 -1 12.5 -5.9 25.5 -10.6 5.5 -2 10.2 -4 10.5 -4.4 0.9 -1.3 23.6 -7.9 27.3 -7.9 3.1 0 3.8 0.4 4.3 2.5 0.3 1.4 1 2.5 1.5 2.5 0.5 0 0.9 0.7 0.9 1.6 0 3.1 12.6 42.3 14 43.4 0.4 0.3 2.3 5 4.2 10.5 7.2 19.7 8.8 23.9 9.6 24.4 0.7 0.5 2.4 4.4 5.3 11.9 0.5 1.3 0.9 3.5 0.9 5 0 2.9 -4.8 16 -6.6 17.8 -0.6 0.7 -1.8 3.4 -2.8 6 -1 2.7 -3.1 8.3 -4.6 12.4 -1.5 4.1 -3.3 9.3 -4 11.5 -0.7 2.2 -1.7 4.2 -2.1 4.5 -0.9 0.6 -6.1 16.5 -11.2 34 -1.7 5.8 -3.4 10.7 -3.8 11 -0.3 0.3 -0.8 1.4 -1 2.5 -0.3 1.6 -1.3 2 -4.4 2.2 -2.2 0.1 -5.3 -0.3 -7 -0.9z"/>
  <path d="M971 849.6 c0 -0.8 -0.4 -1.6 -0.8 -1.8 -0.4 -0.1 -1.8 -3.9 -3.1 -8.3 -3.8 -13.6 -11.4 -37 -12.2 -37.5 -0.4 -0.3 -2 -4.3 -3.7 -9 -1.7 -4.7 -4.2 -11.6 -5.7 -15.5 -1.5 -3.8 -2.9 -7.8 -3.2 -8.7 -0.3 -1 -0.9 -1.8 -1.3 -1.8 -0.4 0 -1.3 -1.5 -2 -3.2 -0.7 -1.8 -2.1 -5.5 -3.2 -8.2 -2.5 -6.1 -2 -10.6 1.9 -19.7 1.5 -3.5 3 -6.6 3.3 -6.9 1 -0.9 10.6 -26.2 12.6 -33 0.3 -1.4 1 -2.7 1.5 -3 1 -0.7 6.5 -17.5 11 -33.8 l3.4 -12.2 4.4 0 c4.2 0 27 6.4 28.1 7.9 0.3 0.4 4.6 2.2 9.5 4.1 15 5.5 25.9 10 26.5 10.9 0.3 0.4 6.2 3.6 13.2 7 7 3.4 12.8 6.6 13 7 0.2 0.4 4.1 3.2 8.8 6.1 4.7 2.9 10.5 7.2 13 9.6 2.4 2.4 5 4.4 5.6 4.4 0.6 0 3.1 2.2 5.5 4.9 2.4 2.7 6.3 6.9 8.5 9.5 13.5 15 15.2 37.6 4.1 54.6 -4 6.2 -17.1 19.7 -24.3 25 -2.6 1.9 -5.8 4.5 -7.1 5.8 -1.3 1.2 -2.6 2.2 -2.9 2.2 -0.3 0 -2.4 1.3 -4.7 2.9 -2.3 1.5 -7 4.2 -10.4 5.9 -3.3 1.7 -6.3 3.5 -6.5 4 -0.3 0.9 -22.2 11.3 -26.5 12.6 -1.3 0.4 -2.9 1.3 -3.5 2 -1.4 1.3 -12.8 5.7 -28.3 10.8 -5.5 1.8 -10.2 3.5 -10.5 3.9 -2.2 2.6 -14 3.9 -14 1.5z"/>
  <path d="M578.1 700.8 c-1.2 -3.5 -3.9 -11.2 -5.8 -17.3 -2 -6 -4 -11.2 -4.4 -11.5 -1.3 -1 -8.1 -24.6 -8.6 -30.1 l-0.5 -5.6 10.1 -2.1 c5.6 -1.2 15.9 -3.2 22.9 -4.4 7 -1.1 12.9 -2.4 13.2 -2.7 0.5 -0.7 21 -4.1 24.3 -4.1 2.3 0 2.3 5 -0.2 9.8 -3.3 6.6 -11 19.5 -12 20.1 -0.5 0.3 -2.9 4.4 -5.4 9.1 -2.5 4.7 -5.3 10.1 -6.3 12 -1.1 1.9 -2.2 3.7 -2.6 4 -0.4 0.3 -3.5 6 -6.9 12.5 -3.3 6.6 -6.4 12.2 -6.8 12.5 -0.4 0.3 -1 1.3 -1.4 2.3 -0.4 1.1 -1.7 1.7 -4 1.7 -3.3 0 -3.5 -0.2 -5.6 -6.2z"/>
  <path d="M912.5 706.2 c-0.5 -0.4 -3.9 -6.7 -7.5 -13.9 -3.5 -7.3 -6.8 -13.3 -7.2 -13.3 -0.4 0 -1.6 -1.9 -2.7 -4.2 -3.6 -7.6 -9.9 -18.7 -11.5 -20.4 -0.9 -0.9 -2.6 -3.4 -3.7 -5.6 -1.1 -2.1 -3.6 -6.3 -5.5 -9.3 -1.8 -3 -3.4 -5.9 -3.4 -6.5 0 -0.6 -0.7 -1.3 -1.5 -1.6 -2.3 -0.9 -2.1 -8.4 0.3 -8.4 3.5 0 24.7 3.4 25.2 4.1 0.3 0.4 3.8 1.2 7.9 1.8 4.1 0.7 14 2.5 22 4.1 8 1.7 14.9 3 15.4 3 1.6 0 0.5 7.2 -2.9 19 -2 6.9 -3.9 12.7 -4.3 13 -0.3 0.3 -3.5 9.2 -7.1 19.8 l-6.4 19.2 -3 0 c-1.7 0 -3.5 -0.4 -4.1 -0.8z"/>
  <path d="M547.6 599.3 c-2.3 -11 -6.6 -39.1 -6.6 -43.5 0 -2 -0.6 -3.8 -1.2 -4 -1.7 -0.6 -1.9 -66.5 -0.2 -67.6 0.5 -0.4 1.6 -4.4 2.3 -8.9 2 -13.5 7.3 -29.1 11.6 -34.3 7.4 -9 15.3 -14 22.2 -14 1.3 0 2.3 -0.4 2.3 -1 0 -0.6 3.5 -1 8.5 -1 5 0 8.5 0.4 8.5 1 0 0.6 1.8 1 3.9 1 2.1 0 8.2 1.1 13.5 2.5 9.4 2.4 27.6 9.1 28.6 10.5 0.3 0.3 5.9 3.4 12.4 6.9 6.6 3.4 13 7.2 14.2 8.4 1.2 1.3 3.5 2.9 5.1 3.7 4.9 2.5 14.1 9.1 14.7 10.6 0.3 0.8 1 1.4 1.7 1.4 1.4 0 13.4 9.3 21.7 16.8 3.5 3.1 7.3 6.2 8.5 6.9 3.5 1.8 6.7 6.9 6.7 10.5 -0.1 2.6 -1.3 4.6 -6.1 9.8 -3.3 3.6 -8.2 9 -10.8 12 -2.6 3 -6.1 7.1 -7.9 9 -1.8 1.9 -4.7 5.4 -6.5 7.8 -1.8 2.3 -5.6 6.8 -8.4 9.9 -2.9 3.1 -5.3 6.2 -5.3 6.8 0 0.6 -2.5 3.8 -5.5 7 -3 3.3 -5.5 6.3 -5.5 6.7 0 1.1 -8.9 13.1 -10.4 14 -0.6 0.4 -2.7 0.8 -4.8 0.8 -2 0 -3.8 0.4 -4 0.8 -0.1 0.4 -8.4 1.8 -18.3 3.1 -21.7 2.8 -62.7 9.9 -63.5 11 -0.8 1.3 -9.5 3.1 -14.8 3.1 l-4.9 0 -1.7 -7.7z"/>
  <path d="M936 605.7 c-2.5 -0.6 -4.7 -1.3 -5 -1.7 -0.9 -1.2 -32.9 -7 -54.5 -9.9 -4.4 -0.6 -11.2 -1.5 -15.2 -2.1 -3.9 -0.5 -8.8 -1 -10.7 -1 -2 0 -3.6 -0.4 -3.6 -1 0 -0.5 -1.6 -1 -3.4 -1 -3.2 0 -3.9 -0.6 -8.8 -7.6 -2.9 -4.2 -6.8 -9.3 -8.7 -11.3 -1.8 -2 -4.9 -6 -6.8 -8.9 -1.9 -2.9 -5.2 -7 -7.4 -9 -2.1 -2 -3.9 -4.2 -3.9 -4.8 0 -0.5 -2.9 -4.1 -6.5 -7.9 -3.6 -3.7 -6.5 -7.1 -6.5 -7.4 0 -0.3 -3 -3.7 -6.6 -7.6 -14.4 -15.3 -15.4 -16.6 -15.4 -19.7 0 -3.4 4.6 -8.9 11.5 -13.8 2.2 -1.5 5.6 -4.4 7.5 -6.4 1.9 -2 5.8 -5.2 8.5 -7.1 2.8 -1.9 6.4 -4.7 8.1 -6.2 3.6 -3.3 13.7 -10.4 17.9 -12.6 1.7 -0.8 4.4 -2.8 6.2 -4.4 1.7 -1.5 8 -5.3 14 -8.3 5.9 -3 11.3 -6 11.9 -6.5 2.6 -2.5 22.8 -9.9 31.7 -11.6 3.7 -0.7 6.7 -1.6 6.7 -2.1 0 -0.4 6.3 -0.8 14 -0.8 8.7 0 14 0.4 14 1 0 0.6 0.6 1 1.4 1 2.9 0 11.2 4.2 14.3 7.2 1.7 1.7 3.7 4.4 4.4 5.9 0.6 1.6 1.5 2.9 1.9 2.9 1.5 0 5.9 10.9 8.4 21.1 2.9 11.7 4.6 24.3 4.6 33.6 0 3.5 0.4 6.3 1 6.3 0.6 0 1 4.8 1 12.5 0 7.7 -0.4 12.5 -1 12.5 -0.6 0 -1 3.2 -1 7.5 0 12.4 -2.7 33.3 -8.7 67.3 -0.6 3.1 -0.7 3.2 -5.7 3.1 -2.8 -0.1 -7.1 -0.6 -9.6 -1.2z"/>
  <path d="M703 581.3 c0 -2.5 1 -4.7 3.5 -7.7 1.9 -2.4 3.5 -4.6 3.5 -4.9 0 -0.3 2.5 -3.2 5.5 -6.3 3 -3.2 5.5 -6.4 5.5 -7 0 -0.7 1.6 -2.5 3.5 -4.1 1.9 -1.6 5.8 -5.8 8.7 -9.4 7.4 -9.1 13 -13.9 16.3 -13.9 1.9 0 4.5 1.7 8.8 5.6 3.4 3 6.4 6.2 6.7 6.9 0.3 0.8 3 4 6.1 7.2 3.1 3.2 7.7 8.5 10.4 11.8 2.6 3.3 5.6 6.9 6.7 8 5.4 5.7 8.8 11.2 8.8 14.1 l0 3.2 -47 0 -47 0 0 -3.5z"/>
 </g>
 <g fill="#61dafb">
  <path d="M722.2 1362 c-93.3 -5.6 -193.6 -35 -273.8 -80.5 -78.4 -44.5 -148.8 -111.2 -196.1 -185.9 -52.9 -83.5 -86.4 -186.1 -93.4 -286 -1.5 -21.4 -0.6 -73 1.5 -91.8 6.5 -57.5 20.4 -117.1 39.2 -167.6 50.1 -134.6 138.7 -233.3 268.9 -299.7 31.4 -16 60.2 -28 95.6 -40 10.2 -3.5 19.9 -7 21.6 -7.8 5.3 -2.8 9 -8.2 11.8 -16.9 4 -12.7 8 -19.4 17 -28.3 13.3 -13.4 28.8 -19.8 48 -19.8 12.3 -0.1 19.9 1.9 31.9 8 39.4 20.4 48.3 74 17.8 106.5 -13.4 14.2 -31 21.8 -50.7 21.8 -13.9 0 -23.7 -3.1 -36.3 -11.4 -13 -8.5 -17.5 -8.5 -43.2 -0.1 -64.1 21.1 -119.1 48.9 -166 83.9 -35.6 26.6 -73.5 64.7 -101.3 101.9 -64.7 86.5 -97.7 188.7 -100.4 310.2 -2.5 116.3 27.8 221 92.4 319.3 77.3 117.5 186.3 191.7 322.3 219.2 38.5 7.8 66.7 10.9 106.6 11.7 31.1 0.6 53.9 -0.4 79.9 -3.7 98.1 -12.5 192.2 -52.6 276.5 -118 88.4 -68.6 144.5 -160.2 165.9 -271 3 -15.5 6.1 -39.1 6.1 -46.4 0 -3.5 -0.2 -3.8 -2.2 -3.3 -9.2 2.3 -126.2 26.6 -126.5 26.3 -0.2 -0.2 2.9 -2.8 6.9 -5.7 42.9 -31.8 81.8 -71.5 108.6 -110.7 32.2 -47.2 53.4 -99.6 63.6 -156.7 1.3 -7.6 2.5 -12.2 2.9 -11 1.8 6.3 14 60.1 16.1 71.5 3.1 16.7 6.2 42 7.6 60.5 1.3 18 1.3 60 0 78 -7.8 106.6 -47.4 210.5 -114.4 299.2 -57 75.7 -128 135.5 -209.6 176.8 -59.8 30.2 -129.7 53.1 -191 62.4 -31.3 4.8 -74.2 6.9 -103.8 5.1z m-43.9 -1125.8 c7.5 -3.7 11.9 -8.3 15.6 -16.2 2.1 -4.7 2.5 -6.8 2.4 -14.5 -0.1 -11.5 -2.6 -18.7 -8.9 -24.9 -6.4 -6.5 -13.5 -9 -25.4 -9.1 -11.2 0 -16.6 2.1 -23.8 9.2 -12.8 12.8 -14.1 32.5 -3.1 46.4 10 12.7 28.2 16.5 43.2 9.1z"/>
  <path d="M574 1104.8 c-3.5 -0.5 -6.7 -1.2 -7 -1.6 -0.3 -0.4 -3.1 -1.6 -6.2 -2.6 -5 -1.7 -7.8 -3.1 -17.7 -9.1 -1.5 -0.9 -8 -7.9 -13.7 -14.7 -5 -5.9 -14.4 -26.3 -14.4 -31.1 0 -1 -0.4 -1.6 -0.9 -1.3 -0.5 0.3 -1.1 -0.7 -1.4 -2.2 -0.4 -1.5 -1.3 -5.8 -2.2 -9.7 -4.2 -19.4 -5.8 -55.8 -3.5 -82.5 1.4 -15.9 6.2 -50 7 -49.5 0.6 0.4 4.1 -16.6 3.6 -17.2 -0.1 -0.2 -6.3 -2.1 -13.6 -4.4 -7.4 -2.3 -14 -4.8 -14.8 -5.5 -0.7 -0.8 -1.9 -1.4 -2.7 -1.4 -2.9 0 -31.7 -11.8 -32.3 -13.2 -0.2 -0.4 -0.8 -0.8 -1.4 -0.8 -1.4 0 -26.1 -12.2 -27.3 -13.6 -1 -1.1 -8.5 -5.6 -13.8 -8.4 -1.5 -0.7 -4.7 -3.1 -7 -5.2 -2.3 -2.1 -4.6 -3.8 -5.1 -3.8 -2.1 0 -27.6 -23.3 -27.6 -25.2 0 -0.4 -1.7 -2.5 -3.7 -4.7 -2.1 -2.1 -5.6 -7.2 -7.7 -11.2 -2.2 -4.1 -4.2 -7.6 -4.6 -7.9 -1.4 -1 -5 -13.6 -6 -21 -1.2 -8 -0.7 -15.6 1.6 -25.8 1.6 -6.9 3.3 -11.2 4.5 -11.2 0.4 0 1.3 -1.6 1.9 -3.5 1.5 -4.5 10.6 -18.3 14 -21.2 1.5 -1.2 3.9 -4 5.4 -6.2 1.5 -2.1 4.4 -5.1 6.4 -6.4 2 -1.4 5.7 -4.4 8.2 -6.8 4.5 -4.2 19.6 -14.9 21.1 -14.9 0.4 0 2.2 -1.3 3.9 -2.8 1.7 -1.6 7.3 -4.9 12.4 -7.5 5.1 -2.5 10 -5.2 10.7 -5.9 1.6 -1.6 29.7 -13.8 31.7 -13.8 0.7 0 1.1 -0.4 0.8 -0.8 -0.5 -0.8 37.5 -14.2 40.3 -14.2 0.7 0 1.9 -0.7 2.7 -1.5 1.2 -1.2 1.3 -2.4 0.2 -8.2 -0.6 -3.7 -1.5 -7 -1.9 -7.3 -0.9 -0.6 -4.3 -21.6 -6.6 -40 -2.4 -20.5 -2.4 -65 0 -81 1.9 -12.8 5.3 -27.1 6.6 -28 0.4 -0.3 1.6 -3 2.6 -6 2.7 -8.2 8.8 -20 12.6 -24.2 1.9 -2 4.5 -5.1 5.8 -6.9 1.4 -1.7 5.7 -5.2 9.5 -7.7 3.9 -2.5 7.7 -5.1 8.4 -5.8 1.3 -1.3 8 -3.5 17.2 -5.6 7.9 -1.7 28.9 -1.5 38.5 0.5 11.4 2.3 20.7 5.1 19.9 6 -0.4 0.4 0 0.7 0.8 0.7 3.2 0 32.7 12.2 33.8 14 0.3 0.4 4.1 2.7 8.5 5 4.4 2.3 9.2 5.1 10.6 6.1 1.5 1 3.2 1.9 3.8 1.9 0.6 0 1.1 0.4 1.1 0.9 0 0.5 4.2 3.6 9.3 6.9 5 3.2 11.2 7.8 13.7 10.1 2.5 2.2 5 4.1 5.5 4.1 0.6 0 3.3 2.1 6 4.6 2.8 2.5 6.7 5.8 8.8 7.4 3.5 2.6 7.8 6.3 16.4 14.3 l3.2 3 5.8 -5.6 c3.2 -3 8.1 -7.4 10.8 -9.6 2.8 -2.3 7 -5.9 9.5 -8.1 2.5 -2.2 7.2 -5.9 10.5 -8.2 3.3 -2.2 6.2 -4.5 6.4 -5 0.1 -0.5 4.2 -3.4 9 -6.4 4.7 -3.1 9.1 -6.1 9.6 -6.8 1.1 -1.2 12.2 -7.8 19.5 -11.5 2.5 -1.3 4.7 -2.7 5 -3.1 0.5 -0.7 6.7 -4.1 7.2 -4 0.2 0.1 3.5 -1.4 7.3 -3.3 3.9 -1.8 9.6 -4.2 12.7 -5.2 3.2 -1 5.5 -2.1 5.2 -2.4 -0.2 -0.3 1.7 -1.1 4.3 -1.8 21.3 -5.7 21.3 -5.7 38.8 -5.8 16 0 17.5 0.2 25.7 2.9 4.8 1.5 9.7 3.7 10.9 4.7 1.2 1 4.5 3.3 7.3 5.1 5.7 3.5 10.6 7.7 10.6 9 0 0.9 4.7 7.1 8.7 11.6 1.2 1.3 2.2 2.7 2.1 3.1 -0.1 0.3 1 2.9 2.4 5.6 1.4 2.8 3.6 8.4 4.9 12.5 1.3 4.1 2.6 7.7 2.9 8 0.8 0.7 2.9 9.7 4.7 20.5 2 12.2 2.9 53.6 1.4 70.6 -1.4 16.9 -5.3 45.2 -6.2 45.9 -0.4 0.3 -1.4 4.6 -2.3 9.5 -1 5 -1.9 9.8 -2.2 10.8 -0.4 1.2 0 1.7 1.4 1.7 1.1 0 2.2 0.3 2.4 0.8 0.2 0.4 3.7 1.8 7.8 3.1 16.3 5.1 33.8 11.5 33.4 12.3 -0.3 0.4 0.1 0.8 0.9 0.8 2.2 0 27.2 10.7 29.1 12.5 0.6 0.6 6 3.5 11.9 6.5 5.9 3 12.2 6.7 14 8.2 1.8 1.6 3.6 2.8 4.1 2.8 0.5 0 4 2.3 7.8 5 3.8 2.7 7.1 5 7.3 5 0.3 0 2.6 2.1 5.2 4.6 2.7 2.5 6 5.2 7.4 5.9 1.4 0.8 5.2 4.6 8.4 8.5 3.2 3.9 6.3 7.4 6.9 7.8 1.6 1 10.9 15.9 12.6 20.2 0.8 1.9 2 4.1 2.6 4.8 0.7 0.6 2.1 4.7 3.1 9 2.6 11.1 2.3 25.4 -0.7 35.7 -1.3 4.4 -2.7 8.2 -3 8.5 -0.4 0.3 -2.7 4.3 -5.1 8.9 -2.4 4.6 -6 10.2 -7.9 12.4 -8.1 9.3 -25.4 25.9 -30.2 29 -2.9 1.9 -6.8 4.8 -8.7 6.5 -1.8 1.8 -3.7 3.2 -4.2 3.2 -1 0 -14.1 8 -14.9 9.1 -0.3 0.4 -6.3 3.5 -13.5 6.9 -7.1 3.4 -13.2 6.5 -13.5 6.9 -0.3 0.4 -2.5 1.5 -5 2.5 -11.5 4.6 -20 7.9 -25.5 9.8 -3.3 1.1 -6.2 2.3 -6.5 2.7 -0.4 0.6 -15.1 5.5 -25.8 8.7 -0.7 0.2 -1.1 1.2 -0.8 2.1 0.3 1 1 4.7 1.7 8.3 0.7 3.6 1.6 6.7 2 7 0.8 0.6 5.5 33.2 6.9 48.5 1.3 14.2 1.3 51.6 0 62.5 -1.8 15.5 -5.3 32.8 -6.8 34 -0.4 0.3 -1.5 3 -2.5 6 -2.4 7.1 -9 20.9 -11.4 23.6 -1 1.2 -4.3 5.1 -7.3 8.6 -6.4 7.6 -16 13.7 -26.5 17.1 -3.8 1.2 -7.3 2.6 -7.7 3.2 -1.1 1.5 -36.7 1.3 -37.6 -0.2 -0.4 -0.6 -2.5 -1.4 -4.7 -1.8 -9.8 -1.7 -36 -10.3 -37.4 -12.2 -0.3 -0.5 -6.4 -3.7 -13.6 -7.2 -7.1 -3.4 -13.4 -6.8 -14 -7.4 -1.1 -1.3 -9.2 -6.7 -10 -6.7 -1.1 0 -11.5 -7.3 -11.5 -8.1 0 -0.5 -0.5 -0.9 -1 -0.9 -1.3 0 -15.9 -10.7 -22.1 -16.1 -2.5 -2.2 -5.8 -4.8 -7.5 -5.8 -1.6 -1 -5.4 -4.3 -8.4 -7.4 -3 -3.2 -5.9 -5.7 -6.4 -5.7 -0.6 0 -2.3 -1.2 -3.8 -2.7 -2.1 -2 -3.3 -2.5 -4.2 -1.8 -5.8 4.3 -13.6 11 -13.6 11.6 0 0.4 -3.4 3.3 -7.5 6.4 -4.1 3.1 -8.7 7 -10.2 8.6 -1.6 1.6 -3.1 2.9 -3.5 2.9 -0.7 0 -11.9 8.2 -17.1 12.4 -1.6 1.3 -5.8 4.1 -9.4 6.2 -3.6 2.1 -8.1 5 -9.9 6.5 -1.9 1.5 -8.7 5.3 -15.2 8.5 -6.4 3.2 -11.9 6.1 -12.2 6.4 -1.5 1.7 -21 8.7 -31.7 11.4 -5.1 1.2 -9.1 2.5 -8.8 2.8 0.8 0.7 -18.6 2.8 -24.8 2.7 -2.9 -0.1 -8.1 -0.6 -11.7 -1.1z m33.2 -38.3 c10.1 -2.6 18.8 -5.6 18.8 -6.6 0 -0.5 0.6 -0.9 1.4 -0.9 1.8 0 24 -10.5 25.7 -12.2 0.8 -0.8 3.4 -2.5 5.9 -3.9 9.2 -5.3 18.5 -11.2 18.8 -12.1 0.2 -0.5 3.6 -3 7.4 -5.5 3.9 -2.5 8.4 -6.1 10.2 -7.8 1.7 -1.8 3.7 -3.4 4.3 -3.6 1.2 -0.4 7 -5.4 19.5 -16.8 l4.8 -4.4 -3.9 -4.6 c-2.1 -2.5 -6.1 -7 -8.7 -9.8 -10.5 -11.3 -15.5 -17 -19.7 -22.5 -2.5 -3.2 -5.6 -6.7 -7.1 -7.9 -1.4 -1.1 -2.6 -2.5 -2.6 -3.1 0 -0.9 -4.9 -7.3 -9.7 -12.8 -2.8 -3.2 -11.3 -14.9 -11.3 -15.7 -0.1 -0.4 -0.9 -1.8 -2 -3.1 -1.7 -2 -3.7 -2.5 -18.2 -4.2 -22.4 -2.7 -46.2 -6.2 -46.8 -7 -0.4 -0.4 -35.6 -7.8 -40.5 -8.4 -1.7 -0.2 -7.6 33.9 -9.1 52.4 -0.4 4.7 -1.1 8.8 -1.7 9.1 -1.4 1 -1.3 49.2 0.2 49.7 0.6 0.2 1.1 1.9 1.1 3.9 0 5.6 3.8 23.1 7.1 32.3 3 8.4 6.6 13.7 14.5 21.6 6.4 6.2 25.4 8 41.6 3.9z m324 -1.8 c3.6 -1.8 6.4 -4 7.7 -6.1 1.2 -1.8 3.2 -4.5 4.6 -5.9 5.2 -5.1 11.7 -26.8 13.1 -43.5 0.4 -4.5 1.1 -8.2 1.5 -8.2 0.5 0 0.9 -9.4 0.9 -21 0 -13.3 -0.4 -21 -1 -21 -0.5 0 -1 -1.9 -1 -4.2 0 -4.7 -2.3 -24.5 -3.9 -34.8 -1.8 -10.9 -4.8 -26 -5.3 -26.5 -0.2 -0.2 -9.1 1.4 -19.8 3.5 -10.7 2.2 -20.5 4 -21.8 4 -1.3 0 -2.1 0.4 -1.8 0.8 0.5 0.8 -36.8 6.4 -51.9 7.8 -3.8 0.4 -7.8 1.1 -8.7 1.5 -0.9 0.5 -3.7 3.9 -6.1 7.6 -2.5 3.8 -5.8 8.2 -7.4 10 -1.5 1.8 -5.3 6.6 -8.3 10.8 -3 4.1 -8.1 10.3 -11.2 13.8 -3.2 3.4 -5.8 6.7 -5.8 7.4 0 0.7 -1.4 2.2 -3 3.5 -1.7 1.2 -5.8 5.7 -9.1 9.9 -3.3 4.3 -6.6 8 -7.4 8.2 -0.7 0.3 -2.9 2.6 -5 5.2 l-3.8 4.6 3.8 3.9 c2.2 2.2 4.3 4 4.7 4 0.5 0 3.4 2.5 6.5 5.6 3.1 3 6.9 6.2 8.4 7 1.5 0.7 3.4 2.2 4.1 3.2 1.5 2 9.2 8.2 10.3 8.2 0.9 0 7.5 5 10.8 8.2 1.6 1.6 3.3 2.8 3.8 2.8 0.5 0 3.9 2 7.7 4.4 3.8 2.4 7.8 4.7 9 5 1.2 0.4 2.2 1.1 2.2 1.6 0 1.1 22.4 12 24.5 12 0.7 0 2 0.6 2.8 1.4 1.6 1.7 15.7 6.1 23.7 7.5 3 0.5 10.2 0.9 16 0.7 9.1 -0.2 11.2 -0.6 16.2 -2.9z m-179.2 -99.5 c0 -0.5 2.8 -3.7 6.3 -7.3 7.8 -8.1 18 -19.6 21.5 -24.4 1.5 -2 4.6 -5.7 7 -8.3 2.3 -2.5 5 -6 6 -7.6 l1.8 -3.1 -44.3 0 c-24.4 0 -44.3 0.3 -44.3 0.7 0 1 8.2 11.2 9.7 12.1 0.8 0.5 2.3 2.3 3.3 4 2.3 3.7 11 13.6 19.8 22.5 3.4 3.5 6.2 6.6 6.2 6.9 0 0.4 1 1.7 2.2 3 2.1 2.3 4.8 3.1 4.8 1.5z m48.5 -87.2 c10.4 -0.6 20 -1.3 21.2 -1.6 1.3 -0.2 2.9 -1.7 3.7 -3.2 0.8 -1.5 2.7 -4.2 4.3 -5.9 1.6 -1.8 3.6 -4.5 4.3 -6 2.1 -4.2 9.2 -14.8 10.2 -15.1 0.4 -0.2 0.8 -0.8 0.8 -1.3 0 -0.6 1.5 -3.3 3.3 -6.2 1.8 -2.9 4.3 -7.2 5.6 -9.7 1.2 -2.5 2.8 -5 3.5 -5.5 0.7 -0.6 4.1 -6.4 7.4 -12.9 3.4 -6.6 6.6 -12.2 7 -12.5 0.5 -0.3 4 -6.9 7.8 -14.6 3.8 -7.7 7.3 -14.5 7.9 -15.1 0.6 -0.6 1.9 -3.1 2.9 -5.5 1.1 -2.4 2.9 -6.7 4.1 -9.4 l2.2 -5 -4.3 -10 c-2.3 -5.5 -4.9 -10.7 -5.7 -11.5 -1.4 -1.4 -13 -24.7 -13.1 -26.3 -0.1 -0.4 -0.6 -1.1 -1.3 -1.5 -0.7 -0.4 -3.1 -4.3 -5.4 -8.7 -5.4 -10.6 -8 -14.7 -9.9 -16.2 -0.8 -0.7 -1.2 -1.3 -0.8 -1.3 0.5 0 -1.2 -3.1 -3.6 -6.8 -2.4 -3.8 -4.6 -7.8 -5 -8.9 -0.4 -1.2 -1.7 -3.2 -3 -4.4 -1.3 -1.3 -3.5 -4.5 -4.9 -7.1 -2.7 -5 -9.2 -15 -11.7 -18.2 -5.5 -6.9 -3.7 -6.4 -25.5 -7.6 -25.8 -1.5 -79.6 -1.5 -105.1 0 l-19.9 1.2 -3.3 3.6 c-3.2 3.7 -9.5 13.1 -13.9 20.9 -1.3 2.3 -3.4 5.4 -4.8 6.9 -1.3 1.4 -2.7 3.5 -3.1 4.7 -0.3 1.1 -2.2 4.4 -4.1 7.4 -1.8 2.9 -3.7 6.1 -4 7.1 -0.4 0.9 -1.4 2.5 -2.3 3.4 -0.9 1 -4 6.4 -7 12 -2.9 5.7 -5.7 10.5 -6.1 10.8 -0.5 0.3 -3.9 6.6 -7.5 14 -3.7 7.4 -7 13.7 -7.4 14 -1.1 0.8 -9 18.8 -9.6 21.9 -0.4 1.8 0.8 5.6 4.1 12.6 2.5 5.5 4.9 10.2 5.3 10.5 0.6 0.4 8.4 15.7 8.7 17 0.3 1.4 5.9 11.6 6.6 12 0.4 0.3 3.2 5.2 6.2 10.8 2.9 5.7 6.2 11.3 7.2 12.5 1.1 1.2 3.2 4.7 4.8 7.7 1.7 3 4.3 7.4 5.9 9.8 1.6 2.3 2.6 4.2 2.2 4.2 -0.4 0 0.4 1.1 1.7 2.4 1.3 1.3 4.6 6 7.2 10.5 2.7 4.5 6.2 9.6 7.8 11.4 1.6 1.7 2.9 3.7 2.9 4.3 0 0.6 0.6 1.6 1.3 2.2 3.2 2.7 88.1 4.1 124.2 2.2z m-174.1 -10.7 c-1 -1.6 -2.5 -4.1 -3.4 -5.8 -3.3 -6.4 -8.5 -14.5 -9.2 -14.5 -0.5 0 -0.8 -0.5 -0.8 -1 0 -0.6 -1.5 -3.4 -3.3 -6.3 -1.8 -2.9 -4.3 -7.4 -5.6 -10 -1.3 -2.6 -2.9 -5.4 -3.7 -6.2 -0.8 -0.7 -4.2 -6.9 -7.5 -13.6 -3.4 -6.8 -7 -13.1 -7.9 -14.2 -2.1 -2.1 -1.8 -2.7 -9.1 19.3 -2.3 6.9 -4.4 12.7 -4.8 13 -0.7 0.5 -3.2 8.4 -5.6 17.3 -0.8 2.9 -1.9 6.7 -2.4 8.4 -0.9 3.1 -0.8 3.3 1.7 4 1.5 0.3 2.9 0.9 3.2 1.3 0.8 1.1 51.1 10.4 58.4 10.9 1.8 0.1 1.8 0 0 -2.6z m264.6 -0.2 c24.3 -4 40.4 -7.3 40.8 -8.3 0.2 -0.4 1.1 -0.8 2 -0.8 4.4 -0.1 4.5 -1.3 1.2 -12.6 -1.8 -6 -3.5 -11.8 -3.8 -12.9 -0.3 -1.1 -0.8 -2.2 -1.2 -2.5 -0.3 -0.3 -3.2 -8.1 -6.4 -17.5 -6.6 -19.3 -6.7 -19.7 -8.2 -18.7 -0.6 0.4 -3.9 6.5 -7.4 13.6 -3.4 7.1 -6.8 13.6 -7.6 14.3 -0.7 0.7 -3.7 5.9 -6.6 11.4 -2.9 5.6 -5.8 10.4 -6.5 10.6 -0.7 0.3 -1.3 1 -1.3 1.5 0 0.6 -1.7 3.8 -3.7 7.2 -2.1 3.3 -4.6 7.7 -5.6 9.7 -0.9 2 -2.7 4.5 -3.8 5.7 -2.5 2.8 -3.1 2.8 18.1 -0.7z m-364.1 -21.7 c0.2 -1 0.7 -2.1 1 -2.4 0.4 -0.3 2.1 -5.2 3.8 -11 5.1 -17.5 10.3 -33.4 11.2 -34 0.4 -0.3 1.4 -2.3 2.1 -4.5 0.7 -2.2 2.5 -7.4 4 -11.5 1.5 -4.1 3.6 -9.7 4.6 -12.4 1 -2.6 2.2 -5.3 2.8 -6 0.6 -0.6 2.3 -4.1 3.8 -7.9 l2.6 -6.7 -2 -5.3 c-1.1 -2.8 -2.2 -6 -2.5 -6.9 -0.3 -1 -0.9 -1.6 -1.3 -1.3 -0.4 0.2 -1.4 -1.7 -2.3 -4.3 -3.2 -9.5 -11.1 -30.7 -11.7 -31.2 -1.4 -1.1 -14 -40.3 -14 -43.4 0 -0.9 -0.4 -1.6 -1 -1.6 -0.5 0 -1 -0.6 -1 -1.2 -0.1 -4 -1.5 -4 -13.9 -0.2 -6.6 2 -11.9 3.9 -11.6 4.2 0.2 0.2 -4.4 2.2 -10.3 4.2 -13 4.7 -25.5 9.8 -26.2 10.9 -0.3 0.4 -6.1 3.6 -13 7 -6.9 3.4 -12.7 6.6 -13 7 -0.7 1 -8.8 6.3 -12.3 8.1 -1.5 0.8 -4.2 2.8 -6 4.5 -1.8 1.7 -5.8 5 -8.9 7.3 -3.1 2.3 -7 5.8 -8.5 7.7 -1.5 2 -4.4 5.3 -6.4 7.4 -4.3 4.7 -8.7 13.7 -10.2 20.8 -2.5 12 3.5 25.9 17.4 40.3 4.9 4.9 9 9 9.3 9 1.1 0 12.6 9.3 12.6 10.2 0 0.4 0.4 0.8 1 0.8 0.5 0 4 1.9 7.7 4.3 3.8 2.3 8.7 5.1 11.1 6.1 2.3 1.1 4.2 2.3 4.2 2.8 0 0.9 13.2 7.3 23.4 11.4 3.3 1.3 6.2 2.7 6.5 3.2 0.7 0.9 13.3 5.6 27.6 10.4 5.5 1.8 10.2 3.5 10.5 3.9 0.7 0.9 6.3 2.8 7.5 2.5 0.6 -0.2 1.2 -1.1 1.4 -2.2z m451.2 1.4 c1.9 -0.6 3.6 -1.4 3.9 -1.7 0.3 -0.4 5 -2.1 10.5 -3.9 15.5 -5.1 26.9 -9.5 28.3 -10.8 0.6 -0.7 2.2 -1.6 3.5 -2 4.3 -1.3 26.2 -11.7 26.5 -12.6 0.2 -0.5 3.2 -2.3 6.5 -4 3.4 -1.7 8.1 -4.4 10.4 -5.9 2.3 -1.6 4.4 -2.9 4.7 -2.9 0.3 0 1.6 -1 2.9 -2.2 1.3 -1.3 4.5 -3.9 7.1 -5.8 7.2 -5.3 20.3 -18.8 24.3 -25 4.1 -6.3 7.3 -15.7 7.3 -21.6 0 -8.1 -4.9 -19.8 -11.4 -27 -2.2 -2.6 -6.1 -6.8 -8.5 -9.5 -2.4 -2.7 -4.9 -4.9 -5.5 -4.9 -0.6 0 -3.2 -2 -5.6 -4.4 -2.5 -2.4 -8.3 -6.7 -13 -9.6 -4.7 -2.9 -8.6 -5.7 -8.8 -6.1 -0.2 -0.4 -6 -3.6 -13 -7 -7 -3.4 -12.9 -6.6 -13.2 -7 -0.6 -0.9 -11.5 -5.4 -26.5 -10.9 -4.9 -1.9 -9.2 -3.7 -9.5 -4.1 -0.6 -0.8 -23 -7.9 -25.1 -7.9 -0.9 0 -2.5 3.9 -4.8 12.2 -4.5 16.3 -10 33.1 -11 33.8 -0.5 0.3 -1.2 1.6 -1.5 3 -2 6.9 -11.6 32.1 -12.6 33 -0.8 0.7 -5.1 10.8 -6 14.1 -0.5 1.8 -0.2 3.9 0.9 6.5 1 2.2 2.1 5.1 2.4 6.6 0.4 1.5 1.3 3.3 2 4 1.7 1.8 4.5 8.7 10.9 26.8 1.7 4.7 3.3 8.7 3.7 9 0.8 0.6 8.7 24.9 12.3 37.7 1.2 4.5 2.6 7.9 3 7.7 0.4 -0.3 0.8 0.4 0.8 1.5 0 2.5 -0.2 2.4 4.1 0.9z m-393.1 -145.4 c0 -0.8 0.4 -1.4 0.8 -1.4 0.5 0 3.5 -5.2 6.7 -11.6 3.2 -6.3 6.3 -12.1 6.9 -12.8 1.1 -1.2 2 -2.7 9.2 -16.3 2.4 -4.5 5 -9 5.9 -10 1.8 -2 10.3 -16.3 12.1 -20.4 l1.2 -2.5 -9.7 1.5 c-5.3 0.8 -9.8 1.8 -10.1 2.1 -0.3 0.4 -6.2 1.7 -13.2 2.8 -7 1.2 -17.3 3.2 -22.8 4.3 l-10.1 2.2 0.6 3.1 c1.1 5.2 7.7 26.1 8.4 26.6 0.4 0.3 2.4 5.5 4.4 11.5 6.2 19 7.9 23.5 8.8 22.9 0.5 -0.3 0.9 -1.2 0.9 -2z m340.2 -22.9 c2.3 -7.1 4.5 -13.2 4.9 -13.5 0.7 -0.5 8.1 -25.1 7.6 -25.6 -0.5 -0.5 -35.3 -7.2 -41 -7.9 -3.2 -0.4 -5.5 -1 -5.2 -1.4 0.7 -0.6 -19.7 -4 -20.5 -3.3 -0.3 0.2 0.3 0.8 1.3 1.3 0.9 0.6 1.7 1.4 1.7 2 0 0.5 1.6 3.4 3.4 6.4 1.9 3 4.4 7.2 5.5 9.3 1.1 2.2 2.8 4.7 3.7 5.6 1.6 1.7 7.9 12.8 11.5 20.4 1.1 2.3 2.3 4.2 2.7 4.2 0.4 0 3.7 6 7.2 13.3 3.6 7.2 6.9 13.5 7.5 13.9 1 0.8 3.3 -5 9.7 -24.7z m-364.4 -75.7 c2.6 -0.6 4.9 -1.5 5.2 -1.9 0.8 -1.1 41.8 -8.2 63.5 -11 9.9 -1.3 18.2 -2.7 18.3 -3.1 0.2 -0.4 2 -0.8 4 -0.8 2.1 0 4.2 -0.4 4.8 -0.8 1.5 -0.9 10.4 -12.9 10.4 -14 0 -0.4 2.5 -3.4 5.5 -6.7 3 -3.2 5.5 -6.4 5.5 -7 0 -0.6 2.4 -3.7 5.3 -6.8 2.8 -3.1 6.6 -7.6 8.4 -9.9 1.8 -2.4 4.7 -5.9 6.5 -7.8 1.8 -1.9 4.6 -5.1 6.1 -7 1.6 -1.9 4.8 -5.5 7.1 -8 2.3 -2.5 5.9 -6.4 8 -8.7 l3.7 -4.2 -2.3 -3.1 c-1.3 -1.8 -3.3 -3.7 -4.5 -4.3 -1.2 -0.7 -5 -3.8 -8.5 -6.9 -8.3 -7.5 -20.3 -16.8 -21.7 -16.8 -0.7 0 -1.4 -0.6 -1.7 -1.4 -0.6 -1.5 -9.8 -8.1 -14.7 -10.6 -1.6 -0.8 -3.9 -2.4 -5.1 -3.7 -1.2 -1.2 -7.6 -5 -14.2 -8.4 -6.5 -3.5 -12.1 -6.6 -12.4 -6.9 -1 -1.4 -19.2 -8.1 -28.6 -10.5 -5.3 -1.4 -11.4 -2.5 -13.5 -2.5 -2.1 0 -3.9 -0.4 -3.9 -1 0 -0.5 -2.5 -1 -5.5 -1 -3 0 -5.5 0.5 -5.5 1 0 0.6 -1 1 -2.3 1 -6.9 0 -14.8 5 -22.2 14 -4.3 5.2 -9.6 20.8 -11.6 34.3 -0.7 4.5 -1.7 8.5 -2.1 8.8 -2.3 1.6 -2 62.8 0.3 61.3 0.5 -0.3 0.9 1.4 0.9 3.8 0 4.9 4.1 32.4 6.6 44.1 1.9 8.6 1.9 8.6 10.2 6.5z m387.5 -2 c6 -34 8.7 -54.9 8.7 -67.3 0 -4.3 0.4 -7.5 1 -7.5 0.6 0 1 -3.8 1 -9.5 0 -5.7 -0.4 -9.5 -1 -9.5 -0.6 0 -1 -2.8 -1 -6.3 0 -9.3 -1.7 -21.9 -4.6 -33.6 -2.5 -10.2 -6.9 -21.1 -8.4 -21.1 -0.4 0 -1.3 -1.3 -1.9 -2.9 -0.7 -1.5 -2.7 -4.2 -4.4 -5.9 -3.1 -3 -11.4 -7.2 -14.3 -7.2 -0.8 0 -1.4 -0.4 -1.4 -1 0 -0.6 -4.3 -1 -11 -1 -6 0 -11 0.4 -11 0.8 0 0.5 -3 1.4 -6.7 2.1 -8.9 1.7 -29.1 9.1 -31.7 11.6 -0.6 0.5 -6 3.5 -11.9 6.5 -6 3 -12.3 6.8 -14 8.3 -1.8 1.6 -4.5 3.6 -6.2 4.4 -4.2 2.2 -14.3 9.3 -17.9 12.6 -1.7 1.5 -5.3 4.3 -8.1 6.2 -2.7 1.9 -6.6 5.1 -8.5 7.1 -1.9 2 -5.3 4.9 -7.5 6.4 -2.2 1.6 -5.7 4.6 -7.8 6.8 l-3.7 4 4.4 4.8 c2.4 2.7 7.4 8.1 11 11.9 3.6 3.9 6.6 7.3 6.6 7.6 0 0.3 2.9 3.7 6.5 7.4 3.6 3.8 6.5 7.4 6.5 7.9 0 0.6 1.8 2.8 3.9 4.8 2.2 2 5.5 6.1 7.4 9 1.9 2.9 5 6.9 6.8 8.9 1.9 2 5.8 7.1 8.7 11.3 4.9 7 5.6 7.6 8.8 7.6 1.8 0 3.4 0.5 3.4 1 0 0.6 1.6 1 3.6 1 1.9 0 6.8 0.5 10.7 1 4 0.6 10.8 1.5 15.2 2.1 21.6 2.9 53.6 8.7 54.5 9.9 0.6 0.7 8.4 2.7 11.6 2.9 1.7 0.1 2.3 -0.6 2.7 -3.1z m-155.5 -20.7 c-0.7 -0.9 -2.3 -2.9 -3.5 -4.6 -1.3 -1.6 -3.1 -3.9 -4.2 -5 -1 -1.1 -4 -4.7 -6.6 -8 -2.7 -3.3 -7.3 -8.6 -10.4 -11.8 -3.1 -3.2 -5.8 -6.4 -6.1 -7.2 -0.3 -0.7 -3.2 -3.8 -6.5 -6.8 l-6 -5.4 -4.1 3.6 c-2.3 2 -6.5 6.5 -9.3 10.1 -2.9 3.6 -6.8 7.7 -8.7 9.3 -1.9 1.6 -3.4 3.4 -3.4 4.1 0 0.6 -2.5 3.8 -5.5 7 -3 3.1 -5.5 6 -5.5 6.3 0 0.3 -1.6 2.5 -3.5 4.9 -1.9 2.3 -3.5 4.4 -3.5 4.7 0 0.2 19.8 0.4 44 0.4 40.2 0 43.9 -0.1 42.8 -1.6z"/>
  <path d="M737.5 822.4 c-10.2 -2.2 -19.5 -5.2 -19.5 -6.4 0 -0.5 -1.3 -1.3 -3 -1.8 -6.9 -2.5 -20.3 -14.2 -25.9 -22.7 -1.4 -2.2 -2.9 -4.2 -3.2 -4.5 -1.8 -1.4 -6 -11.6 -7.9 -18.9 -2.5 -10 -2.8 -26.3 -0.6 -36.6 1.7 -8 6 -19.5 7.9 -21 1.8 -1.5 6.7 -8.2 6.7 -9.2 0 -1.1 6.3 -7 11.5 -10.8 2.1 -1.6 4.7 -3.7 5.7 -4.7 2.6 -2.6 11.9 -6.6 20.8 -9 9.7 -2.6 28.4 -2.8 38.1 -0.4 9.1 2.2 19.5 6.8 23.8 10.4 2 1.6 6 4.9 8.9 7.2 2.9 2.3 5.6 4.9 6 5.8 0.5 1.5 5.1 8.1 8.2 11.8 1.9 2.5 6.1 13.7 7.5 20.5 2.1 9.8 1.9 25.6 -0.4 34.9 -2 8.4 -5.9 18 -7.2 18 -0.5 0 -1.5 1.4 -2.1 3 -3 7 -16.8 20.5 -25.8 25.1 -2.5 1.3 -4.7 2.6 -5 3 -0.9 1.2 -8.1 3.7 -15.7 5.3 -6.6 1.5 -23.7 2 -28.8 1z"/>
 </g>
</svg>